<?xml version="1.0" encoding="utf-8"?>
<!-- Generator: Adobe Illustrator 26.0.0, SVG Export Plug-In . SVG Version: 6.00 Build 0)  -->
<svg version="1.1" id="Layer_1" xmlns="http://www.w3.org/2000/svg" xmlns:xlink="http://www.w3.org/1999/xlink" x="0px" y="0px"
	 viewBox="0 0 30 30" style="enable-background:new 0 0 30 30;" xml:space="preserve">
<style type="text/css">
	.st0{fill:#FEFEFE;}
	.st1{fill:#0571D1;}
	.st2{fill:#F2EFF5;}
	.st3{fill:#EEEDF4;}
	.st4{fill:#F2F0F5;}
	.st5{fill:#F0EFF4;}
	.st6{fill:#0C73D1;}
	.st7{fill:#0872D1;}
	.st8{fill:#1777D2;}
</style>
<g>
	<path class="st0" d="M0,30C0,20,0,10,0,0c10,0,20,0,30,0c0,10,0,20,0,30C20,30,10,30,0,30z M11.5,12.5c-0.8,0.1-1.5,0.2-2.3,0.3
		C8,12.9,6.8,14.4,7,15.6c0.1,0.9,0.3,1.8,0.3,2.7c0.1,1.9,0.3,1.6,1.9,1.4c1-0.1,2.1-0.3,3.1-0.4c0.1,0.3,0.1,0.5,0.1,0.7
		c0.2,1.3,0.3,2.7,0.4,4c0.1,0.6,0.3,0.9,0.9,0.7c1-0.2,2-0.4,3.1-0.6c1-0.2,2-1.7,1.9-2.6c-0.1-1-0.2-2.1-0.4-3.1
		c0.7-0.2,1.3-0.4,1.8-0.4c1.1,0,1.9-0.5,2.3-1.5c0.2-0.4,0.4-0.9,0.3-1.3c-0.1-1.2-0.3-2.4-0.4-3.6c-0.1-0.8-0.5-1-1.3-0.8
		c-1.2,0.3-2.4,0.5-3.6,0.7c-0.2-1.7-0.4-3.2-0.6-4.8c-0.1-0.5-0.3-0.7-0.8-0.6c-1,0.1-2.1,0.3-3.1,0.4c-0.9,0.1-2,1.7-2,2.6
		C11.3,10.2,11.4,11.3,11.5,12.5z"/>
	<path class="st1" d="M11.5,12.5c-0.1-1.2-0.3-2.3-0.4-3.3c-0.1-0.9,1.1-2.4,2-2.6c1-0.2,2.1-0.3,3.1-0.4C16.7,6,16.9,6.2,17,6.7
		c0.2,1.6,0.4,3.1,0.6,4.8c1.2-0.2,2.5-0.4,3.6-0.7c0.8-0.2,1.2,0,1.3,0.8c0.1,1.2,0.3,2.4,0.4,3.6c0,0.4-0.2,0.9-0.3,1.3
		c-0.4,1-1.2,1.5-2.3,1.5c-0.6,0-1.2,0.3-1.8,0.4c0.1,1,0.2,2,0.4,3.1c0.1,1-0.9,2.5-1.9,2.6c-1,0.2-2.1,0.3-3.1,0.6
		c-0.7,0.1-0.9-0.1-0.9-0.7c-0.1-1.3-0.3-2.7-0.4-4c0-0.2-0.1-0.4-0.1-0.7c-1.1,0.1-2.1,0.3-3.1,0.4c-1.6,0.2-1.8,0.5-1.9-1.4
		c-0.1-0.9-0.2-1.8-0.3-2.7c-0.2-1.2,1.1-2.7,2.3-2.9C10,12.7,10.7,12.6,11.5,12.5z M12.4,16.9c-0.1-1.1-0.2-2.1-0.4-3.1
		c0-0.1-0.3-0.3-0.4-0.3c-0.9,0.1-1.8,0.2-2.8,0.4C9,15,9.2,16.2,9.3,17.5C10.4,17.3,11.3,17.1,12.4,16.9z M20.2,15.8
		c1,0,1.7-0.6,1.8-1.9c0.1-1.1-0.7-1.9-1.6-1.9c-1,0-1.8,0.8-1.8,1.8C18.5,15,19.2,15.8,20.2,15.8z M16.9,10.5
		c-0.8-1.1-1.5-2.2-2.3-3.4c-0.5,1.4-1,2.7-1.4,4.1C14.5,11,15.6,10.7,16.9,10.5z M14.8,18.6c-0.5,0.5-0.5,0.5,0,0.9
		c0.8,0.7,0.8,0.7,0.3,1.5c-0.1,0.2-0.3,0.5-0.4,0.8c0.1,0.1,0.3,0.2,0.5,0.4c0.3-0.5,0.7-0.9,1-1.4c0.4,0.4,0.8,0.7,1.2,1.1
		c0.5-0.4,0.4-0.6,0-0.9c-0.9-0.6-0.9-0.6-0.3-1.5c0.1-0.2,0.3-0.5,0.4-0.7c-0.4-0.4-0.4-0.4-0.7-0.1c-0.3,0.3-0.5,0.7-0.7,1.1
		C15.6,19.3,15.2,19,14.8,18.6z"/>
	<path class="st2" d="M12.4,16.9c-1.1,0.2-2,0.4-3.1,0.6C9.2,16.2,9,15,8.9,13.8c1-0.1,1.9-0.3,2.8-0.4c0.1,0,0.4,0.2,0.4,0.3
		C12.1,14.8,12.3,15.8,12.4,16.9z M11.4,14.2c-0.7,0.1-1.2,0.2-1.9,0.3c0.1,0.7,0.2,1.4,0.2,2.1c0.7-0.1,1.3-0.2,1.9-0.3
		C11.6,15.6,11.5,15,11.4,14.2z"/>
	<path class="st3" d="M20.2,15.8c-1,0-1.7-0.8-1.7-2c0-1.1,0.8-1.9,1.8-1.8c0.9,0,1.7,0.9,1.6,1.9C21.9,15.2,21.3,15.8,20.2,15.8z
		 M21.4,13.9c0-0.7-0.5-1.3-1.1-1.3c-0.6,0-1.1,0.7-1,1.3c0,0.6,0.6,1.2,1.1,1.2C20.9,15.1,21.4,14.5,21.4,13.9z"/>
	<path class="st4" d="M16.9,10.5c-1.3,0.2-2.4,0.5-3.8,0.7c0.5-1.4,0.9-2.7,1.4-4.1C15.4,8.3,16.1,9.4,16.9,10.5z M14.7,8.5
		c-0.2,0.7-0.4,1.2-0.6,1.8c0.6-0.1,1.1-0.1,1.7-0.2C15.4,9.5,15.1,9,14.7,8.5z"/>
	<path class="st5" d="M14.8,18.6c0.4,0.4,0.8,0.7,1.3,1.1c0.3-0.4,0.5-0.8,0.7-1.1c0.3-0.4,0.3-0.3,0.7,0.1
		c-0.1,0.2-0.2,0.5-0.4,0.7c-0.5,0.9-0.6,0.9,0.3,1.5c0.4,0.3,0.5,0.5,0,0.9c-0.4-0.3-0.8-0.7-1.2-1.1c-0.3,0.5-0.7,0.9-1,1.4
		c-0.2-0.1-0.3-0.2-0.5-0.4c0.2-0.3,0.3-0.5,0.4-0.8c0.5-0.8,0.5-0.8-0.3-1.5C14.3,19.1,14.3,19.1,14.8,18.6z"/>
	<path class="st6" d="M11.4,14.2c0.1,0.7,0.2,1.4,0.3,2.1c-0.6,0.1-1.2,0.2-1.9,0.3c-0.1-0.7-0.2-1.4-0.2-2.1
		C10.2,14.4,10.8,14.3,11.4,14.2z"/>
	<path class="st7" d="M21.4,13.9c0,0.7-0.5,1.3-1,1.3c-0.6,0-1.1-0.6-1.1-1.2c0-0.7,0.5-1.3,1-1.3C20.8,12.6,21.3,13.2,21.4,13.9z"
		/>
	<path class="st8" d="M14.7,8.5c0.4,0.6,0.7,1,1.1,1.6c-0.6,0.1-1.1,0.1-1.7,0.2C14.3,9.6,14.5,9.1,14.7,8.5z"/>
</g>
</svg>
