<svg id="Layer_1" data-name="Layer 1" xmlns="http://www.w3.org/2000/svg" viewBox="0 0 30 30"><defs><style>.cls-1{fill:#fdfefe;}.cls-2{fill:#0a75d2;}.cls-3{fill:#2c88d8;}.cls-4{fill:#f0f6fb;}.cls-5{fill:#dcebf8;}.cls-6{fill:#d9e9f7;}.cls-7{fill:#e7f1fa;}.cls-8{fill:#e0edf9;}.cls-9{fill:#0c76d2;}.cls-10{fill:#1079d3;}</style></defs><path class="cls-1" d="M0,30V0H30V30ZM15.61,7.62c-.11-.77.24-1.68-.78-2.15-.12-.06,0-.61,0-1.09L16.49,5c-.46-1-1-1.47-1.9-1-.76.43-.88,1.19-.17,2s.46,1.28-.26,1.75c-.48.3-1,.54-1.5.81a3,3,0,0,0-3.48.53C7.64,10.59,6.06,12,4.52,13.53a1.64,1.64,0,0,0-.47,1c0,.8,3.11,3.6,3.88,3.44a7.83,7.83,0,0,0,1.58-.77c0,2.43,0,4.74,0,7,0,1,.39,1.59,1.44,1.59h8.83c1,0,1.39-.49,1.37-1.48,0-1.86,0-3.73,0-5.6,0-.49,0-1,.06-1.58,1.67,1.14,1.71,1.14,3.15-.11.51-.45,1-.89,1.55-1.36,1-.93,1-1.44,0-2.4S23.65,11.12,22.53,10s-2.21-2.14-4-1.73c-.56.13-1.12.3-1.68.45C16.82,8,16.45,7.53,15.61,7.62Z"/><path class="cls-2" d="M16.89,8.76c.56-.15,1.12-.32,1.68-.45,1.75-.41,2.86.66,4,1.73s2.22,2.18,3.35,3.25,1,1.47,0,2.4c-.51.47-1,.91-1.55,1.36-1.44,1.25-1.48,1.25-3.15.11,0,.59-.06,1.09-.06,1.58,0,1.87,0,3.74,0,5.6,0,1-.4,1.48-1.37,1.48H10.94c-1,0-1.46-.55-1.44-1.59,0-2.3,0-4.61,0-7A7.83,7.83,0,0,1,7.93,18c-.77.16-3.9-2.64-3.88-3.44a1.64,1.64,0,0,1,.47-1C6.06,12,7.64,10.59,9.18,9.1a3,3,0,0,1,3.48-.53l.61.54a2.7,2.7,0,0,0,3.85.24Zm2.55,9.87a2,2,0,0,0-2.1-2,2.14,2.14,0,0,0,.12,4.27A2,2,0,0,0,19.44,18.63Zm-4.27-2.69h4.56l-2.32-4.2ZM11.26,12.1v3.77h3.39V12.1Zm.21,4.84-.32.32,1.14,1.39-1.08,1.79.24.22,1.43-1,1.61,1,.17-.26-1.14-1.79,1.15-1.43-.24-.29L12.91,18Z"/><path class="cls-3" d="M13.27,9.11l-.61-.54c.5-.27,1-.51,1.5-.81.72-.47,1-1,.26-1.75s-.59-1.53.17-2C15.5,3.54,16,4,16.49,5l-1.68-.63c0,.48-.1,1,0,1.09,1,.47.67,1.38.78,2.15Z"/><path class="cls-4" d="M13.27,9.11l2.34-1.49c.84-.09,1.21.36,1.28,1.14l.23.59A2.7,2.7,0,0,1,13.27,9.11Z"/><path class="cls-5" d="M19.44,18.63a2,2,0,0,1-2,2.27,2.14,2.14,0,0,1-.12-4.27A2,2,0,0,1,19.44,18.63Zm-3.29,0c0,.91.57,1.65,1.32,1.59.92-.06,1.2-.77,1.26-1.52a1.2,1.2,0,0,0-1.17-1.39A1.26,1.26,0,0,0,16.15,18.66Z"/><path class="cls-6" d="M15.17,15.94l2.24-4.2,2.32,4.2Zm3.49-.71L17.39,13l-1.13,2.19Z"/><path class="cls-7" d="M11.26,12.1h3.39v3.77H11.26Zm.64.61v2.53H14V12.71Z"/><path class="cls-8" d="M11.47,16.94,12.91,18l1.52-1.12.24.29-1.15,1.43,1.14,1.79-.17.26-1.61-1-1.43,1-.24-.22,1.08-1.79-1.14-1.39Z"/><path class="cls-9" d="M16.15,18.66a1.26,1.26,0,0,1,1.41-1.32,1.2,1.2,0,0,1,1.17,1.39c-.06.75-.34,1.46-1.26,1.52C16.72,20.31,16.13,19.57,16.15,18.66Z"/><path class="cls-10" d="M18.66,15.23h-2.4L17.39,13Z"/><path class="cls-9" d="M11.9,12.71H14v2.53H11.9Z"/></svg>