<svg id="Layer_1" data-name="Layer 1" xmlns="http://www.w3.org/2000/svg" viewBox="0 0 15 15"><defs><style>.cls-1{fill:#0070cc;}.cls-2{fill:#fff;}</style></defs><circle class="cls-1" cx="7.5" cy="7.5" r="7.5"/><path class="cls-2" d="M11.16,16.83c-.3.26-.2.75.44,1a3.39,3.39,0,0,0,2.08.21s.08,0,.1,0v-.87l-.68.28a1.17,1.17,0,0,1-.78.05c-.2-.08-.16-.23.08-.36l1.38-.62v-1l-1.92.86a2.35,2.35,0,0,0-.7.46ZM15.8,13v2.5c.82.52,1.46,0,1.46-1.34a2.24,2.24,0,0,0-1.48-2.47A10.88,10.88,0,0,0,14,11v7.46l1.4.54V12.73c0-.29,0-.49.16-.41s.24.36.24.64Zm2.6,3.28A3.43,3.43,0,0,0,16.6,16a2.75,2.75,0,0,0-.9.26l-.06,0v1l1.3-.62a1.23,1.23,0,0,1,.78-.05c.2.08.16.24-.08.36l-2,1v1l2.76-1.32a1.56,1.56,0,0,0,.54-.43C19.08,16.86,19,16.5,18.4,16.24Z" transform="translate(-7.5 -7.5)"/></svg>