<?xml version="1.0" encoding="utf-8"?>
<!-- Generator: Adobe Illustrator 26.0.0, SVG Export Plug-In . SVG Version: 6.00 Build 0)  -->
<svg version="1.1" id="Layer_1" xmlns="http://www.w3.org/2000/svg" xmlns:xlink="http://www.w3.org/1999/xlink" x="0px" y="0px"
	 viewBox="0 0 30 30" style="enable-background:new 0 0 30 30;" xml:space="preserve">
<style type="text/css">
	.st0{fill:#0072CD;}
	.st1{fill:#FEFEFE;}
	.st2{fill:#FDFEFE;}
	.st3{fill:#FDFDFE;}
</style>
<g>
	<path class="st0" d="M25.2,24.6c0,0.1,0,0.2,0,0.3c-0.1,0.2-0.2,0.2-0.3,0.3c-0.4,0.3-0.8,0.5-1.2,0.8c-0.9,0.6-1.8,1.2-2.8,1.8
		c-0.1,0-0.2,0.1-0.2,0.1c-0.1,0-0.2,0-0.3,0c-0.8-0.1-1.6-0.2-2.4-0.4c-0.8-0.1-1.6-0.2-2.4-0.4c-0.8-0.1-1.6-0.2-2.4-0.4
		c-0.8-0.1-1.7-0.3-2.5-0.4c-0.8-0.1-1.5-0.2-2.3-0.4c-0.3,0-0.5-0.1-0.8-0.1c-0.8-0.1-1.7-0.3-2.5-0.4c-0.4-0.1-0.8-0.1-1.2-0.2
		c-0.2,0-0.2-0.1-0.2-0.3c0-0.1,0-0.3,0-0.4c0-0.9,0.1-1.7,0.1-2.6c0-0.9,0.1-1.7,0.1-2.6c0.1-1,0.1-1.9,0.2-2.9c0.1-1,0.1-2,0.2-3
		c0.1-0.9,0.1-1.9,0.2-2.8c0.1-1.1,0.1-2.1,0.2-3.2c0-0.2,0.1-0.3,0.3-0.3c0.2,0,0.3,0,0.5,0c0.9,0,1.8,0,2.7,0c0.7,0,1.3,0,2,0
		c0,0,0.1,0,0.1,0c0-0.5,0.1-1.1,0.1-1.6c0.1-0.8,0.2-1.5,0.5-2.2c0.2-0.5,0.4-1,0.8-1.5c0.7-0.8,1.7-1,2.6-0.5c0,0,0.1,0,0.1,0
		c0.2-0.2,0.5-0.3,0.7-0.3c0.1,0,0.1,0,0.2,0c0.2,0,0.3,0,0.5,0c0,0,0,0,0,0c0.5,0.1,1,0.3,1.3,0.7c0.3,0.4,0.6,0.8,0.8,1.2
		c0.6,1.2,0.9,2.5,1.1,3.8c0,0.1,0,0.3,0.1,0.4c0,0,0.1,0,0.1,0c0.9,0,1.8,0,2.8,0c0,0,0.1,0,0.1,0c0.7,0.1,1.5,0.2,2.2,0.3
		c0.1,0,0.2,0.1,0.2,0.2c0,0.8,0.1,1.7,0.1,2.5c0.1,1.1,0.1,2.2,0.2,3.3c0.1,1.1,0.1,2.2,0.2,3.3c0.1,1.2,0.1,2.4,0.2,3.6
		c0.1,1.3,0.1,2.7,0.2,4C25.2,24.4,25.2,24.5,25.2,24.6z M13.2,21.8c0-0.1,0-0.1,0-0.1c0-2.7,0-5.4,0-8.1c0,0,0-0.1,0-0.1
		c0-0.1,0.1-0.2,0.1-0.3c0.1-0.1,0.2-0.2,0.3-0.1c0.2,0,0.3,0.1,0.4,0.3c0,0.2,0.1,0.3,0.1,0.5c0,1.1,0,2.2,0,3.3
		c0,0.1,0,0.1,0.1,0.1c0.2,0.1,0.5,0.2,0.8,0.2c0.5,0,0.9-0.1,1.2-0.5c0.3-0.4,0.4-0.8,0.4-1.2c0-0.4,0-0.8-0.1-1.2
		c-0.1-0.5-0.3-1-0.7-1.4c-0.4-0.4-0.8-0.6-1.3-0.8c-1-0.4-2.1-0.7-3.1-0.9c-0.2,0-0.3-0.1-0.5-0.1c0,0,0,0.1,0,0.1
		c0,3.2,0,6.5,0,9.7c0,0.1,0,0.1,0.1,0.1c0.5,0.2,1,0.3,1.5,0.5C12.7,21.7,12.9,21.7,13.2,21.8z M13.6,21.6
		C13.6,21.6,13.7,21.6,13.6,21.6c1.7-0.6,3.3-1.2,4.8-1.7c0.3-0.1,0.6-0.3,0.9-0.5c0.2-0.2,0.2-0.5,0-0.8c-0.2-0.2-0.4-0.3-0.6-0.4
		c-0.9-0.4-1.8-0.5-2.8-0.5c-0.8,0-1.6,0.2-2.3,0.4c-0.1,0-0.1,0.1-0.1,0.1c0,0.4,0,0.8,0,1.2c0,0,0,0,0,0.1c0,0,0.1,0,0.1,0
		c0.7-0.3,1.5-0.5,2.2-0.8c0.3-0.1,0.7-0.2,1.1-0.1c0.1,0,0.3,0.1,0.4,0.1c0.1,0.1,0.1,0.2,0,0.3c-0.1,0.1-0.2,0.1-0.3,0.2
		c-0.9,0.3-1.8,0.6-2.7,1c-0.3,0.1-0.6,0.2-0.9,0.3C13.6,20.8,13.6,21.2,13.6,21.6z M16,7.2C16,7.1,16,7.1,16,7.2
		c-0.1-0.3-0.1-0.6-0.2-0.8c-0.2-0.9-0.5-1.8-0.9-2.7c-0.1-0.3-0.3-0.6-0.5-0.8c-0.1-0.1-0.2-0.3-0.3-0.4c0,0.1-0.1,0.1-0.1,0.1
		c-0.3,0.4-0.5,0.9-0.6,1.4C13.1,5,13,6,12.9,7.1c0,0,0,0,0,0.1C14,7.2,15,7.2,16,7.2z M10.5,17.2C10.5,17.2,10.5,17.2,10.5,17.2
		C9.3,17.6,8.1,18,7,18.5c-0.3,0.1-0.6,0.3-0.9,0.5c-0.3,0.2-0.4,0.6-0.1,0.9c0.2,0.2,0.4,0.3,0.6,0.4c0.8,0.3,1.5,0.4,2.3,0.4
		c0.5,0,1,0,1.5-0.1c0-0.4,0-0.8,0-1.1c-0.3,0.1-0.7,0.2-1,0.4c-0.3,0.1-0.6,0.2-1,0.2c-0.2,0-0.4,0-0.6-0.1c-0.1-0.1-0.2-0.2,0-0.3
		c0.1-0.1,0.2-0.1,0.3-0.2c0.7-0.3,1.5-0.5,2.2-0.8c0.1,0,0.1-0.1,0.1-0.1c0-0.3,0-0.7,0-1C10.5,17.3,10.5,17.3,10.5,17.2z
		 M18.1,7.2c0-0.1,0-0.2-0.1-0.4c-0.2-1-0.4-2-0.8-2.9c-0.2-0.5-0.4-1-0.8-1.4c-0.2-0.3-0.5-0.5-0.8-0.6c-0.3-0.1-0.6,0-0.9,0.1
		c0,0,0,0,0.1,0.1c0.3,0.3,0.5,0.6,0.7,1c0.5,0.9,0.8,1.8,1,2.7c0.1,0.5,0.2,1,0.3,1.5C17.3,7.2,17.7,7.2,18.1,7.2z M13.5,2
		c-0.3-0.1-0.6-0.1-1,0.1c-0.4,0.2-0.6,0.5-0.8,0.9c-0.2,0.4-0.4,0.9-0.5,1.3C11.1,4.9,11,5.6,11,6.3c0,0.3,0,0.6-0.1,0.8
		c0.4,0,0.8,0,1.2,0c0-0.7,0.1-1.5,0.3-2.2c0.1-0.7,0.3-1.5,0.7-2.2C13.2,2.5,13.3,2.2,13.5,2z"/>
	<path class="st1" d="M15.1,1c-0.1,0-0.1,0-0.2,0c-0.3,0.1-0.5,0.2-0.7,0.3c0,0-0.1,0-0.1,0c-0.8-0.5-1.9-0.3-2.6,0.5
		c-0.4,0.4-0.6,0.9-0.8,1.5c-0.2,0.7-0.4,1.5-0.5,2.2c-0.1,0.5-0.1,1-0.1,1.6c0,0,0,0-0.1,0c-0.7,0-1.3,0-2,0c-0.9,0-1.8,0-2.7,0
		c-0.2,0-0.3,0-0.5,0c-0.2,0-0.3,0.1-0.3,0.3c-0.1,1.1-0.1,2.1-0.2,3.2c-0.1,0.9-0.1,1.9-0.2,2.8c-0.1,1-0.1,2-0.2,3
		c-0.1,1-0.1,1.9-0.2,2.9c0,0.9-0.1,1.7-0.1,2.6c0,0.9-0.1,1.7-0.1,2.6c0,0.1,0,0.3,0,0.4c0,0.2,0,0.3,0.2,0.3
		c0.4,0.1,0.8,0.1,1.2,0.2c0.8,0.1,1.7,0.3,2.5,0.4c0.3,0,0.5,0.1,0.8,0.1c0.8,0.1,1.5,0.2,2.3,0.4c0.8,0.1,1.7,0.3,2.5,0.4
		c0.8,0.1,1.6,0.2,2.4,0.4c0.8,0.1,1.6,0.2,2.4,0.4c0.8,0.1,1.6,0.2,2.4,0.4c0.1,0,0.2,0,0.3,0c0.1,0,0.2,0,0.2-0.1
		c0.9-0.6,1.9-1.2,2.8-1.8c0.4-0.3,0.8-0.5,1.2-0.8c0.1-0.1,0.3-0.2,0.3-0.3c0,1,0,2,0,2.9c-7.2,0-14.4,0-21.6,0c0-9,0-17.9,0-26.9
		C7.4,1,11.2,1,15.1,1z"/>
	<path class="st1" d="M25.2,24.6c0-0.1,0-0.2,0-0.3c-0.1-1.3-0.1-2.7-0.2-4c-0.1-1.2-0.1-2.4-0.2-3.6c-0.1-1.1-0.1-2.2-0.2-3.3
		c-0.1-1.1-0.1-2.2-0.2-3.3c0-0.8-0.1-1.7-0.1-2.5c0-0.1-0.1-0.2-0.2-0.2c-0.7-0.1-1.5-0.2-2.2-0.3c0,0-0.1,0-0.1,0
		c-0.9,0-1.8,0-2.8,0c0,0-0.1,0-0.1,0c0-0.2,0-0.3-0.1-0.4c-0.2-1.3-0.5-2.6-1.1-3.8c-0.2-0.5-0.5-0.9-0.8-1.2
		C16.6,1.3,16.1,1,15.6,1c0,0,0,0,0,0c3.2,0,6.4,0,9.6,0C25.2,8.9,25.2,16.7,25.2,24.6z"/>
	<path class="st2" d="M13.2,21.8c-0.2-0.1-0.4-0.1-0.6-0.2c-0.5-0.2-1-0.3-1.5-0.5c-0.1,0-0.1,0-0.1-0.1c0-3.2,0-6.5,0-9.7
		c0,0,0,0,0-0.1c0.2,0,0.3,0.1,0.5,0.1c1.1,0.3,2.1,0.5,3.1,0.9c0.5,0.2,0.9,0.4,1.3,0.8c0.4,0.4,0.6,0.9,0.7,1.4
		c0.1,0.4,0.1,0.8,0.1,1.2c0,0.4-0.1,0.9-0.4,1.2c-0.3,0.4-0.7,0.6-1.2,0.5c-0.3,0-0.5-0.1-0.8-0.2c-0.1,0-0.1-0.1-0.1-0.1
		c0-1.1,0-2.2,0-3.3c0-0.2,0-0.3-0.1-0.5c-0.1-0.2-0.2-0.3-0.4-0.3c-0.1,0-0.2,0-0.3,0.1c0,0.1-0.1,0.2-0.1,0.3c0,0,0,0.1,0,0.1
		c0,2.7,0,5.4,0,8.1C13.2,21.7,13.2,21.7,13.2,21.8z"/>
	<path class="st2" d="M13.6,21.6c0-0.4,0-0.9,0-1.3c0.3-0.1,0.6-0.2,0.9-0.3c0.9-0.3,1.8-0.6,2.7-1c0.1,0,0.2-0.1,0.3-0.2
		c0.1-0.1,0.1-0.2,0-0.3c-0.1-0.1-0.3-0.1-0.4-0.1c-0.4,0-0.7,0-1.1,0.1c-0.7,0.3-1.5,0.5-2.2,0.8c0,0-0.1,0-0.1,0c0,0,0-0.1,0-0.1
		c0-0.4,0-0.8,0-1.2c0-0.1,0-0.1,0.1-0.1c0.7-0.2,1.5-0.4,2.3-0.4c1,0,1.9,0.1,2.8,0.5c0.2,0.1,0.4,0.2,0.6,0.4
		c0.2,0.2,0.2,0.5,0,0.8c-0.2,0.2-0.6,0.4-0.9,0.5C16.9,20.5,15.3,21,13.6,21.6C13.7,21.6,13.6,21.6,13.6,21.6z"/>
	<path class="st2" d="M16,7.2c-1,0-2.1,0-3.1,0c0,0,0,0,0-0.1C13,6,13.1,5,13.4,3.9C13.6,3.5,13.8,3,14,2.6c0,0,0.1-0.1,0.1-0.1
		c0.1,0.1,0.2,0.3,0.3,0.4c0.2,0.3,0.3,0.5,0.5,0.8c0.4,0.8,0.7,1.7,0.9,2.7C15.9,6.6,16,6.8,16,7.2C16,7.1,16,7.1,16,7.2z"/>
	<path class="st2" d="M10.5,17.2c0,0.1,0,0.1,0,0.2c0,0.3,0,0.7,0,1c0,0.1,0,0.1-0.1,0.1c-0.7,0.3-1.5,0.5-2.2,0.8
		c-0.1,0-0.2,0.1-0.3,0.2c-0.1,0.1-0.1,0.2,0,0.3c0.2,0.1,0.4,0.1,0.6,0.1c0.3,0,0.7,0,1-0.2c0.3-0.1,0.7-0.2,1-0.4
		c0,0.4,0,0.8,0,1.1c-0.5,0.1-1,0.1-1.5,0.1c-0.8,0-1.6-0.2-2.3-0.4C6.4,20.1,6.2,20,6,19.8c-0.3-0.3-0.3-0.6,0.1-0.9
		c0.3-0.2,0.6-0.3,0.9-0.5C8.1,18,9.3,17.6,10.5,17.2C10.5,17.2,10.5,17.2,10.5,17.2z"/>
	<path class="st3" d="M18.1,7.2c-0.4,0-0.8,0-1.2,0c-0.1-0.5-0.2-1-0.3-1.5c-0.2-0.9-0.6-1.8-1-2.7c-0.2-0.3-0.4-0.7-0.7-1
		c0,0,0,0-0.1-0.1c0.3-0.1,0.6-0.2,0.9-0.1c0.4,0.1,0.6,0.3,0.8,0.6c0.4,0.4,0.6,0.9,0.8,1.4c0.4,0.9,0.6,1.9,0.8,2.9
		C18.1,6.9,18.1,7,18.1,7.2z"/>
	<path class="st2" d="M13.5,2c-0.1,0.3-0.3,0.5-0.4,0.8c-0.3,0.7-0.5,1.4-0.7,2.2c-0.1,0.7-0.2,1.5-0.3,2.2c-0.4,0-0.8,0-1.2,0
		c0-0.3,0-0.6,0.1-0.8c0.1-0.7,0.1-1.4,0.3-2.1c0.1-0.5,0.3-0.9,0.5-1.3c0.2-0.4,0.4-0.7,0.8-0.9C12.8,1.9,13.1,1.9,13.5,2z"/>
</g>
</svg>
