<svg id="Layer_1" data-name="Layer 1" xmlns="http://www.w3.org/2000/svg" viewBox="0 0 15 15"><defs><style>.cls-1{fill:#0070cc;}.cls-2{fill:#f9f9f9;fill-rule:evenodd;}</style></defs><circle class="cls-1" cx="7.5" cy="7.5" r="7.5"/><path class="cls-2" d="M12.87,13.37a.29.29,0,0,1-.3-.33A2.25,2.25,0,0,1,15,11.15a2.17,2.17,0,0,1,2.41,2.07,2.12,2.12,0,0,1-1.14,1.9c-.71.42-.91.72-.91,1.29v0a.32.32,0,0,1-.32.32h-.49a.32.32,0,0,1-.32-.32V16.3a1.83,1.83,0,0,1,1.06-1.74c.66-.4.89-.72.89-1.29A1.11,1.11,0,0,0,15,12.18a1.18,1.18,0,0,0-1.24.9.38.38,0,0,1-.35.29Zm1.94,5.48a.7.7,0,1,0-.7-.7A.69.69,0,0,0,14.81,18.85Z" transform="translate(-7.5 -7.5)"/></svg>