<?xml version="1.0" encoding="utf-8"?>
<!-- Generator: Adobe Illustrator 26.0.0, SVG Export Plug-In . SVG Version: 6.00 Build 0)  -->
<svg version="1.1" id="Layer_1" xmlns="http://www.w3.org/2000/svg" xmlns:xlink="http://www.w3.org/1999/xlink" x="0px" y="0px"
	 viewBox="0 0 30 30" style="enable-background:new 0 0 30 30;" xml:space="preserve">
<style type="text/css">
	.st0{fill:#FDFDFE;}
	.st1{fill:#0B76D2;}
	.st2{fill:#F7FAFD;}
	.st3{fill:#1179D3;}
</style>
<g>
	<path class="st0" d="M0.3,0c10,0,20,0,30,0c0,10,0,20,0,30c-10,0-20,0-30,0C0.3,20,0.3,10,0.3,0z M11,9.7c-1.6,0.2-2.8,0.3-4,0.4
		c-1.3,0.1-1.7,0.8-1.7,2c0,1.9-0.1,3.8,0,5.8c0,0.6,0.3,1.3,0.7,1.8c1.8,2.3,4.3,3.5,6.8,4.7c1.9,0.9,3.6,0.2,5.2-0.9
		c0.5-0.4,0.9-0.9,1.4-1.3c1.7-1.3,1.9-3.2,1.6-5c-0.3-1.9-1.2-3.4-3.4-3.7c-0.7-0.1-1.5-0.4-2.2-0.7c-0.3-0.2-0.6-0.5-0.9-0.8
		c0.4-0.3,0.8-0.8,1.1-0.7c1.8,0.2,3.6,0.3,5.2,0.8c2.1,0.7,4,1.9,6,2.9c0.3-0.6,0.6-1.1,0.9-1.6c-5.4-3-10.8-5.9-15.8-8.6
		C9.1,6.3,11.6,8.5,11,9.7z"/>
	<path class="st1" d="M11,9.7c0.7-1.2-1.8-3.4,0.9-5c5,2.7,10.3,5.6,15.8,8.6c-0.3,0.6-0.6,1-0.9,1.6c-2.1-1-4-2.2-6-2.9
		c-1.6-0.6-3.5-0.7-5.2-0.8c-0.3,0-0.7,0.5-1.1,0.7c0.3,0.3,0.6,0.6,0.9,0.8c0.7,0.3,1.4,0.6,2.2,0.7c2.2,0.3,3,1.8,3.4,3.7
		c0.3,1.9,0.1,3.7-1.6,5c-0.5,0.4-0.9,0.9-1.4,1.3c-1.6,1.1-3.3,1.8-5.2,0.9c-2.5-1.2-5.1-2.3-6.8-4.7c-0.4-0.5-0.6-1.2-0.7-1.8
		c-0.1-1.9,0-3.8,0-5.8c0-1.1,0.4-1.9,1.7-2C8.2,10.1,9.4,9.9,11,9.7z M6.3,11.8c0,1.8,0,3.4,0,5.1c0,1.3,0.4,2.4,1.5,3
		c2,1.2,3.9,2.4,5.9,3.5c0.5,0.3,1.5,0.2,2-0.1c0.9-0.4,1.7-1.1,2.5-1.7c1.3-1,2-3,1.5-4.5c-0.5-1.7-1.8-2-3.4-1.5
		c-1.2,0.4-2.8,0.4-3.9,0C10.4,14.5,8.6,13.1,6.3,11.8z"/>
	<path class="st2" d="M6.3,11.8c2.3,1.4,4.1,2.8,6.2,3.7c1.1,0.5,2.7,0.4,3.9,0c1.6-0.5,2.9-0.1,3.4,1.5c0.5,1.5-0.2,3.6-1.5,4.5
		c-0.8,0.6-1.6,1.3-2.5,1.7c-0.6,0.3-1.5,0.4-2,0.1c-2-1.1-3.9-2.3-5.9-3.5c-1.2-0.7-1.5-1.8-1.5-3C6.3,15.2,6.3,13.5,6.3,11.8z
		 M11.8,19.3c0.8-2.3-0.5-2.5-1.5-3c-0.2-0.1-0.7-0.1-0.8,0.1c-0.2,0.2-0.3,0.7-0.1,0.9C10,17.9,10.8,18.5,11.8,19.3z"/>
	<path class="st3" d="M11.8,19.3c-0.9-0.8-1.7-1.3-2.5-2c-0.1-0.1,0-0.7,0.1-0.9c0.2-0.2,0.6-0.2,0.8-0.1
		C11.3,16.8,12.6,17,11.8,19.3z"/>
</g>
</svg>
