<svg id="Layer_1" data-name="Layer 1" xmlns="http://www.w3.org/2000/svg" viewBox="0 0 30 30"><defs><style>.cls-1{fill:#fcfdfe;}.cls-2{fill:#0371d1;}.cls-3{fill:#0673d1;}.cls-4{fill:#2685d7;}.cls-5{fill:#0170d0;}</style></defs><path class="cls-1" d="M0,30V0H30V30ZM7.21,5V19.89h8.22a13.51,13.51,0,0,1,.31-1.47c.72-2.21,2-2.76,4.19-1.86a7.39,7.39,0,0,0,1.58.28V5ZM26.09,24.09c-.19-1.58-.4-2.93-.51-4.3a3,3,0,0,0-1.28-2.34c-.53-.41-.75-.46-1.29,0-1.26,1.11-2.58,1-4,0-.26-.19-.84-.39-.95-.28a4.92,4.92,0,0,0-1.44,1.92,38.18,38.18,0,0,0-.63,4.8c-.09.83.37,1.27,1.13,1.06a2.24,2.24,0,0,0,1.25-1A2.45,2.45,0,0,1,21,22.34c1.35,0,2.23.37,2.69,1.65.1.26.25.63.46.7a3.19,3.19,0,0,0,1.52.18C25.88,24.83,26,24.26,26.09,24.09Zm-11-1.6H7c-.19.77.08,1,.8,1q3.23,0,6.46,0C15,23.53,15.25,23.22,15.07,22.49ZM6.94,21l.17.45c2.54,0,5.08,0,7.62,0,.23,0,.46-.37.68-.56l-.15-.31c-2.55,0-5.1,0-7.64,0C7.39,20.6,7.16,20.88,6.94,21Z"/><path class="cls-2" d="M7.21,5h14.3V16.84a7.39,7.39,0,0,1-1.58-.28c-2.16-.9-3.47-.35-4.19,1.86a13.51,13.51,0,0,0-.31,1.47H7.21Z"/><path class="cls-3" d="M26.09,24.09c-.09.17-.21.74-.43.78a3.19,3.19,0,0,1-1.52-.18c-.21-.07-.36-.44-.46-.7-.46-1.28-1.34-1.62-2.69-1.65A2.45,2.45,0,0,0,18.4,24a2.24,2.24,0,0,1-1.25,1c-.76.21-1.22-.23-1.13-1.06a38.18,38.18,0,0,1,.63-4.8,4.92,4.92,0,0,1,1.44-1.92c.11-.11.69.09.95.28,1.39,1,2.71,1.11,4,0,.54-.48.76-.43,1.29,0a3,3,0,0,1,1.28,2.34C25.69,21.16,25.9,22.51,26.09,24.09Z"/><path class="cls-4" d="M15.07,22.49c.18.73,0,1-.77,1q-3.24,0-6.46,0c-.72,0-1-.27-.8-1Z"/><path class="cls-5" d="M6.94,21c.22-.14.45-.42.68-.42,2.54,0,5.09,0,7.64,0l.15.31c-.22.19-.45.55-.68.56-2.54,0-5.08,0-7.62,0Z"/></svg>