<?xml version="1.0" encoding="utf-8"?>
<!-- Generator: Adobe Illustrator 26.0.0, SVG Export Plug-In . SVG Version: 6.00 Build 0)  -->
<svg version="1.1" id="Layer_1" xmlns="http://www.w3.org/2000/svg" xmlns:xlink="http://www.w3.org/1999/xlink" x="0px" y="0px"
	 viewBox="0 0 30 30" style="enable-background:new 0 0 30 30;" xml:space="preserve">
<style type="text/css">
	.st0{fill:#FDFDFE;}
	.st1{fill:#0271D1;}
	.st2{fill:#0673D1;}
	.st3{fill:#177CD4;}
</style>
<g>
	<g>
		<path class="st0" d="M0,0c10,0,20,0,30,0c0,10,0,20,0,30c-10,0-20,0-30,0C0,20,0,10,0,0z M14.4,19.9c0.1-1,0.2-1.9,0.4-2.7
			c0.5-1.9,2.3-2.6,3.9-1.7c0.5,0.3,1.1,0.3,1.6,0.4c0-3.7,0-7.2,0-10.7c-4.4,0-8.7,0-13.1,0c0,5,0,9.8,0,14.7
			C9.6,19.9,12,19.9,14.4,19.9z M15,22.1c0.1,0.2,0.4,1,0.6,1c0.5,0,1.1-0.3,1.6-0.6c0.3-0.2,0.3-0.8,0.6-1.1
			c0.2-0.3,0.6-0.7,0.9-0.7c1.4,0,3.1-0.6,3.6,1.6c0,0.2,0.2,0.5,0.4,0.5c0.5,0.2,1,0.4,1.4,0.3c0.2-0.1,0.5-0.8,0.4-1.1
			c-0.1-1.5-0.3-3-0.6-4.4c-0.2-1.4-1.4-1.9-2.6-1.2c-1.1,0.6-2.1,0.6-3.2,0c-1.2-0.7-2.3-0.2-2.6,1.2C15.4,19,15.3,20.4,15,22.1z
			 M7.2,22.1c2.4,0,4.6,0,7,0c0-0.5,0.1-1,0.1-1.5c-2.5,0-4.8,0-7.3,0C7.1,21.1,7.1,21.6,7.2,22.1z"/>
		<path class="st1" d="M14.4,19.9c-2.5,0-4.8,0-7.2,0c0-4.9,0-9.7,0-14.7c4.4,0,8.7,0,13.1,0c0,3.5,0,7,0,10.7
			c-0.5-0.1-1.2-0.1-1.6-0.4c-1.6-1-3.5-0.3-3.9,1.7C14.6,18,14.6,18.8,14.4,19.9z"/>
		<path class="st2" d="M15,22.1c0.2-1.7,0.4-3.2,0.7-4.6c0.3-1.4,1.3-1.9,2.6-1.2c1.1,0.6,2.1,0.6,3.2,0c1.2-0.7,2.3-0.2,2.6,1.2
			c0.3,1.5,0.4,3,0.6,4.4c0,0.4-0.2,1.1-0.4,1.1c-0.4,0.1-1-0.1-1.4-0.3c-0.2-0.1-0.4-0.3-0.4-0.5c-0.5-2.2-2.2-1.6-3.6-1.6
			c-0.3,0-0.7,0.4-0.9,0.7c-0.3,0.3-0.3,0.9-0.6,1.1c-0.4,0.3-1,0.6-1.6,0.6C15.4,23.1,15.2,22.4,15,22.1z"/>
		<path class="st3" d="M7.2,22.1c-0.1-0.5-0.1-0.9-0.2-1.5c2.5,0,4.8,0,7.3,0c0,0.5-0.1,1-0.1,1.5C11.9,22.1,9.6,22.1,7.2,22.1z"/>
	</g>
</g>
</svg>
