<?xml version="1.0" encoding="utf-8"?>
<!-- Generator: Adobe Illustrator 26.0.0, SVG Export Plug-In . SVG Version: 6.00 Build 0)  -->
<svg version="1.1" id="Layer_1" xmlns="http://www.w3.org/2000/svg" xmlns:xlink="http://www.w3.org/1999/xlink" x="0px" y="0px"
	 viewBox="0 0 30 30" style="enable-background:new 0 0 30 30;" xml:space="preserve">
<style type="text/css">
	.st0{fill:#FCFDFE;}
	.st1{fill:#0673D1;}
	.st2{fill:#0A75D2;}
	.st3{fill:#197DD5;}
	.st4{fill:#2986D7;}
</style>
<g>
	<path class="st0" d="M-0.1,30c0-10,0-20,0-30c10,0,20,0,30,0c0,10,0,20,0,30C20,30,10,30-0.1,30z M11.7,4c-1.4-0.1-2.9-0.3-4.5-0.4
		c0.2,1.9,0.4,3.6,0.6,5.4c0.8-4.5,0.9-4.5,3.8-4.5c-0.2,1.1-0.5,2.1-0.6,3.2c-0.3,3-0.6,6-0.8,9c-0.2,2.6-0.3,5.2-0.5,8
		c1.9-0.3,3.4-0.6,4.9-0.8c0.3-2.7,0.3-5.2,3-6.2c-0.2-4.5-0.3-8.9-0.5-13.3c-1.3-0.2-2.6-0.5-3.9-0.6C12.7,3.5,12.2,3.8,11.7,4z
		 M24.8,23.2c-0.3-1.1-0.5-2.1-0.8-2.9c-0.4-1.1-1-1.7-2.4-1.3c-1,0.3-2.1,0-3.1,0c-0.5,0-1.1,0-1.4,0.2c-0.9,0.6-1.7,3.9-1.2,4.9
		c0.4,0.8,1.3,1.1,1.5,0.4c0.7-2.4,2.5-1.5,4-1.6c0.4,0,0.8,0.5,1.2,0.8c0.4,0.3,0.8,0.7,1.2,1.1C24.2,24.1,24.5,23.6,24.8,23.2z
		 M8.4,13.3c-0.1,0-0.2,0-0.2,0c0,2.5,0,5.1,0,7.6c0.1,0,0.2,0,0.2,0C8.4,18.4,8.4,15.9,8.4,13.3z"/>
	<path class="st1" d="M11.7,4c0.5-0.2,1-0.5,1.5-0.4c1.3,0.1,2.6,0.4,3.9,0.6c0.2,4.4,0.3,8.8,0.5,13.3c-2.7,1-2.7,3.6-3,6.2
		c-1.5,0.3-3,0.5-4.9,0.8c0.2-2.8,0.3-5.4,0.5-8c0.2-3,0.5-6,0.8-9c0.1-1.1,0.4-2.1,0.6-3.2C11.6,4.3,11.7,4.1,11.7,4z"/>
	<path class="st2" d="M24.4,23.2L24,23.9c-0.2,0.3-0.6,0.3-0.8,0.1c-0.2-0.2-0.5-0.5-0.8-0.7c-0.4-0.3-0.8-0.8-1.2-0.8
		c-1.4,0.1-3.3-0.9-4,1.6c-0.2,0.7-1.2,0.4-1.5-0.4c-0.5-1,0.3-4.3,1.2-4.9c0.4-0.2,1-0.2,1.4-0.2c1,0,2.1,0.3,3.1,0
		c1.4-0.4,2,0.2,2.4,1.3c0.3,0.8,0.4,1.6,0.7,2.5C24.6,22.7,24.6,23,24.4,23.2z"/>
	<path class="st3" d="M11.7,4c0,0.1,0,0.3,0,0.4c-3,0-3,0-3.8,4.5C7.6,7.2,7.4,5.5,7.2,3.5C8.8,3.7,10.2,3.8,11.7,4z"/>
	<path class="st4" d="M8.4,13.3c0,2.6,0,5.1,0,7.7c-0.1,0-0.2,0-0.2,0c0-2.5,0-5.1,0-7.6C8.2,13.4,8.3,13.3,8.4,13.3z"/>
</g>
</svg>
