<svg id="Layer_1" data-name="Layer 1" xmlns="http://www.w3.org/2000/svg" viewBox="0 0 14.25 14.25"><defs><style>.cls-1{fill:#fff;stroke:#402e32;stroke-width:0.25px;}.cls-1,.cls-2{stroke-miterlimit:10;}.cls-2{fill:#402e32;stroke:#f6f6f6;stroke-width:0.15px;}</style></defs><circle class="cls-1" cx="7.13" cy="7.13" r="7"/><path class="cls-2" d="M11.74,14.74l1.52-1.6a.43.43,0,0,1,.59,0,.38.38,0,0,1,.06.56l-.88.92,4.87,0a.46.46,0,0,1,.46.4.35.35,0,0,1-.38.39l-4.87,0,1.06.9a.39.39,0,0,1,.05.56.43.43,0,0,1-.59,0L11.79,15.3A.38.38,0,0,1,11.74,14.74Z" transform="translate(-7.99 -8.05)"/></svg>