<svg id="Layer_1" data-name="Layer 1" xmlns="http://www.w3.org/2000/svg" viewBox="0 0 14.25 14.25"><defs><style>.cls-1{fill:#fff;stroke:#402e32;stroke-width:0.25px;}.cls-1,.cls-2{stroke-miterlimit:10;}.cls-2{fill:#402e32;stroke:#f6f6f6;stroke-width:0.15px;}</style></defs><circle class="cls-1" cx="7.13" cy="7.13" r="7"/><path class="cls-2" d="M18.26,15.2l-1.52,1.6a.44.44,0,0,1-.6,0,.39.39,0,0,1-.05-.56l.87-.91-4.86,0a.46.46,0,0,1-.46-.41.35.35,0,0,1,.38-.39l4.86,0-1-.9a.38.38,0,0,1-.05-.56.42.42,0,0,1,.59,0l1.83,1.57A.38.38,0,0,1,18.26,15.2Z" transform="translate(-7.99 -8.05)"/></svg>